<svg width="48" height="48" viewBox="0 0 48 48" fill="none" xmlns="http://www.w3.org/2000/svg">
<g clip-path="url(#clip0_55_171)">
<path d="M48 0H0V48H48V0Z" fill="black"/>
<path d="M10.1775 14.9451C10.4189 14.9451 10.626 15.0313 10.7984 15.2038C10.9709 15.359 11.0572 15.5574 11.0572 15.7989V21.801H9.32379V16.6784H9.01337V22.1114H11.0572V23.8448H9.01337V24.1552H11.0572V25.8886H9.01337V31.3216H9.32379V26.1991H11.0572V32.2011C11.0572 32.4426 10.9709 32.6496 10.7984 32.8221C10.626 32.9773 10.4189 33.055 10.1775 33.055H8.1337C7.89224 33.055 7.68522 32.9773 7.51274 32.8221C7.35754 32.6496 7.28001 32.4426 7.28001 32.2011V25.8886H6.24512V24.1552H7.28001V23.8448H6.24512V22.1114H7.28001V15.7989C7.28001 15.5574 7.35752 15.359 7.51274 15.2038C7.68522 15.0313 7.89224 14.9451 8.1337 14.9451H10.1775ZM13.1072 22.1114H13.4178V14.9451H15.1511V22.9651C15.1511 23.2066 15.0649 23.4137 14.8924 23.5861C14.7372 23.7585 14.5388 23.8448 14.2973 23.8448H14.1421V24.1552H14.2973C14.5388 24.1552 14.7372 24.2415 14.8924 24.4139C15.0649 24.5863 15.1511 24.7934 15.1511 25.0349V33.055H13.4178V25.8886H13.1072V33.055H11.3738V25.0349C11.3738 24.7934 11.4515 24.5863 11.6067 24.4139C11.7792 24.2415 11.9862 24.1552 12.2277 24.1552H12.4087V23.8448H12.2277C11.9862 23.8448 11.7792 23.7585 11.6067 23.5861C11.4515 23.4137 11.3738 23.2066 11.3738 22.9651V14.9451H13.1072V22.1114ZM18.3902 14.9451C18.6317 14.9451 18.83 15.0313 18.9853 15.2038C19.1577 15.359 19.2439 15.5574 19.2439 15.7989V24C19.2439 24.2415 19.1577 24.4484 18.9853 24.621C18.83 24.7762 18.6317 24.8537 18.3902 24.8537H17.2001V33.055H15.4667V14.9451H18.3902ZM23.3368 22.8099H21.6036V16.6784H21.293V23.1205H23.3368V24.8537H21.293V31.3216H21.6036V25.1901H23.3368V33.055H19.5596V14.9451H23.3368V22.8099ZM26.576 14.9451C26.8175 14.9451 27.0158 15.0313 27.1711 15.2038C27.3435 15.359 27.4297 15.5574 27.4297 15.7989V31.3216H27.7402V14.9451H29.4736V33.055H26.576C26.3346 33.055 26.1275 32.9687 25.955 32.7963C25.7826 32.6237 25.6965 32.4168 25.6965 32.1753V16.6784H25.3859V33.055H23.6525V14.9451H26.576ZM32.7154 14.9451C32.9568 14.9451 33.1551 15.0313 33.3103 15.2038C33.4827 15.359 33.5691 15.5574 33.5691 15.7989V22.8099H31.8357V16.6784H31.5252V23.1205H32.7154C32.9568 23.1205 33.1551 23.2066 33.3103 23.379C33.4827 23.5514 33.5691 23.7585 33.5691 24V32.2011C33.5691 32.4426 33.4827 32.6496 33.3103 32.8221C33.1551 32.9773 32.9568 33.055 32.7154 33.055H30.6457C30.4043 33.055 30.1972 32.9773 30.0247 32.8221C29.8695 32.6496 29.7919 32.4426 29.7919 32.2011V25.1901H31.5252V31.3216H31.8357V24.8537H30.6457C30.4043 24.8537 30.1972 24.7762 30.0247 24.621C29.8695 24.4484 29.7919 24.2415 29.7919 24V15.7989C29.7919 15.5574 29.8695 15.359 30.0247 15.2038C30.1972 15.0313 30.4043 14.9451 30.6457 14.9451H32.7154ZM37.662 22.8099H35.9285V16.6784H35.6181V23.1205H37.662V24.8537H35.6181V31.3216H35.9285V25.1901H37.662V33.055H33.8848V14.9451H37.662V22.8099ZM40.9012 14.9451C41.1425 14.9451 41.3409 15.0313 41.4961 15.2038C41.6685 15.359 41.7548 15.5574 41.7548 15.7989V22.8099H40.0214V16.6784H39.711V23.1205H40.9012C41.1425 23.1205 41.3409 23.2066 41.4961 23.379C41.6685 23.5514 41.7548 23.7585 41.7548 24V32.2011C41.7548 32.4426 41.6685 32.6496 41.4961 32.8221C41.3409 32.9773 41.1426 33.055 40.9012 33.055H38.8315C38.5901 33.055 38.383 32.9773 38.2106 32.8221C38.0553 32.6496 37.9777 32.4426 37.9777 32.2011V25.1901H39.711V31.3216H40.0214V24.8537H38.8315C38.5901 24.8537 38.383 24.7762 38.2106 24.621C38.0553 24.4484 37.9777 24.2415 37.9777 24V15.7989C37.9777 15.5574 38.0553 15.359 38.2106 15.2038C38.383 15.0313 38.5901 14.9451 38.8315 14.9451H40.9012ZM17.2001 23.1205H17.5106V16.6784H17.2001V23.1205Z" fill="#FFD500"/>
</g>
<defs>
<clipPath id="clip0_55_171">
<rect width="48" height="48" fill="white"/>
</clipPath>
</defs>
</svg>
