<svg width="48" height="48" viewBox="0 0 48 48" fill="none" xmlns="http://www.w3.org/2000/svg">
<g clip-path="url(#clip0_55_171)">
<path d="M48 0H0V48H48V0Z" fill="black"/>
<path d="M6.93522 12.8211C7.2333 12.8211 7.48892 12.9276 7.70183 13.1405C7.91477 13.3321 8.02124 13.5771 8.02124 13.8752V21.2852H5.88127V14.961H5.49804V21.6684H8.02124V23.8083H5.49804V24.1917H8.02124V26.3316H5.49804V33.039H5.88127V26.715H8.02124V34.1248C8.02124 34.4229 7.91477 34.6786 7.70183 34.8915C7.4889 35.0831 7.23332 35.179 6.93522 35.179H4.41203C4.11393 35.179 3.85835 35.0831 3.64541 34.8915C3.4538 34.6786 3.35809 34.4229 3.35809 34.1248V26.3316H2.08044V24.1917H3.35809V23.8083H2.08044V21.6684H3.35809V13.8752C3.35809 13.5771 3.45378 13.3321 3.64541 13.1405C3.85835 12.9275 4.11393 12.8211 4.41203 12.8211H6.93522ZM10.5522 21.6684H10.9356V12.8211H13.0755V22.7224C13.0755 23.0205 12.969 23.2761 12.7561 23.489C12.5645 23.7019 12.3195 23.8083 12.0214 23.8083H11.8298V24.1917H12.0214C12.3195 24.1917 12.5645 24.2981 12.7561 24.511C12.969 24.7239 13.0755 24.9795 13.0755 25.2777V35.179H10.9356V26.3316H10.5522V35.179H8.4122V25.2777C8.4122 24.9795 8.50805 24.7239 8.6997 24.511C8.91263 24.2981 9.16821 24.1917 9.46631 24.1917H9.68983V23.8083H9.46631C9.16821 23.8083 8.91263 23.7019 8.6997 23.489C8.50807 23.2761 8.4122 23.0205 8.4122 22.7224V12.8211H10.5522V21.6684ZM17.0744 12.8211C17.3725 12.8211 17.6174 12.9275 17.809 13.1405C18.0219 13.3321 18.1284 13.5771 18.1284 13.8752V24C18.1284 24.2981 18.0219 24.5536 17.809 24.7667C17.6174 24.9583 17.3725 25.054 17.0744 25.054H15.6051V35.179H13.4652V12.8211H17.0744ZM23.1813 22.5307H21.0415V14.961H20.658V22.9142H23.1813V25.054H20.658V33.039H21.0415V25.4693H23.1813V35.179H18.5181V12.8211H23.1813V22.5307ZM27.1803 12.8211C27.4784 12.8211 27.7233 12.9275 27.915 13.1405C28.1279 13.3321 28.2343 13.5771 28.2343 13.8752V33.039H28.6176V12.8211H30.7576V35.179H27.1803C26.8822 35.179 26.6266 35.0725 26.4137 34.8596C26.2008 34.6466 26.0945 34.3911 26.0945 34.093V14.961H25.711V35.179H23.5711V12.8211H27.1803ZM34.7598 12.8211C35.0579 12.8211 35.3026 12.9276 35.4943 13.1405C35.7071 13.3321 35.8138 13.5771 35.8138 13.8752V22.5307H33.6738V14.961H33.2905V22.9142H34.7598C35.0579 22.9142 35.3026 23.0205 35.4943 23.2334C35.7071 23.4462 35.8138 23.7019 35.8138 24V34.1248C35.8138 34.4229 35.7071 34.6786 35.4943 34.8915C35.3026 35.0831 35.0579 35.179 34.7598 35.179H32.2047C31.9066 35.179 31.6509 35.0831 31.438 34.8915C31.2463 34.6786 31.1505 34.4229 31.1505 34.1248V25.4693H33.2905V33.039H33.6738V25.054H32.2047C31.9066 25.054 31.6509 24.9583 31.438 24.7667C31.2463 24.5536 31.1505 24.2981 31.1505 24V13.8752C31.1505 13.5771 31.2463 13.3321 31.438 13.1405C31.6509 12.9276 31.9066 12.8211 32.2047 12.8211H34.7598ZM40.8667 22.5307H38.7266V14.961H38.3434V22.9142H40.8667V25.054H38.3434V33.039H38.7266V25.4693H40.8667V35.179H36.2035V12.8211H40.8667V22.5307ZM44.8657 12.8211C45.1637 12.8211 45.4085 12.9276 45.6002 13.1405C45.8131 13.3321 45.9195 13.5771 45.9195 13.8752V22.5307H43.7796V14.961H43.3964V22.9142H44.8657C45.1637 22.9142 45.4085 23.0205 45.6002 23.2334C45.8131 23.4462 45.9195 23.7019 45.9195 24V34.1248C45.9195 34.4229 45.8131 34.6786 45.6002 34.8915C45.4085 35.0831 45.1638 35.179 44.8657 35.179H42.3106C42.0125 35.179 41.7568 35.0831 41.5439 34.8915C41.3523 34.6786 41.2565 34.4229 41.2565 34.1248V25.4693H43.3964V33.039H43.7796V25.054H42.3106C42.0125 25.054 41.7568 24.9583 41.5439 24.7667C41.3523 24.5536 41.2565 24.2981 41.2565 24V13.8752C41.2565 13.5771 41.3523 13.3321 41.5439 13.1405C41.7568 12.9276 42.0125 12.8211 42.3106 12.8211H44.8657ZM15.6051 22.9142H15.9885V14.961H15.6051V22.9142Z" fill="#FFD500"/>
</g>
<defs>
<clipPath id="clip0_55_171">
<rect width="48" height="48" fill="white"/>
</clipPath>
</defs>
</svg>
