<svg width="180" height="180" viewBox="0 0 180 180" fill="none" xmlns="http://www.w3.org/2000/svg">
<g clip-path="url(#clip0_56_174)">
<path d="M180 0H0V180H180V0Z" fill="black"/>
<path d="M38.1658 56.0439C39.0712 56.0439 39.8477 56.3674 40.4944 57.0142C41.1412 57.5962 41.4646 58.3403 41.4646 59.2458V81.7539H34.9644V62.5441H33.8004V82.9177H41.4646V89.4178H33.8004V90.5822H41.4646V97.0823H33.8004V117.456H34.9644V98.2467H41.4646V120.754C41.4646 121.66 41.1412 122.436 40.4944 123.083C39.8476 123.665 39.0713 123.956 38.1658 123.956H30.5016C29.5961 123.956 28.8198 123.665 28.173 123.083C27.591 122.436 27.3003 121.66 27.3003 120.754V97.0823H23.4194V90.5822H27.3003V89.4178H23.4194V82.9177H27.3003V59.2458C27.3003 58.3403 27.591 57.5962 28.173 57.0142C28.8198 56.3674 29.5961 56.0439 30.5016 56.0439H38.1658ZM49.1523 82.9177H50.3168V56.0439H56.8169V86.1192C56.8169 87.0247 56.4935 87.8012 55.8468 88.4479C55.2647 89.0945 54.5206 89.4178 53.6151 89.4178H53.0331V90.5822H53.6151C54.5206 90.5822 55.2647 90.9055 55.8468 91.5521C56.4935 92.1988 56.8169 92.9753 56.8169 93.8808V123.956H50.3168V97.0823H49.1523V123.956H42.6521V93.8808C42.6521 92.9753 42.9433 92.1988 43.5254 91.5521C44.1722 90.9055 44.9485 90.5822 45.854 90.5822H46.5329V89.4178H45.854C44.9485 89.4178 44.1722 89.0945 43.5254 88.4479C42.9433 87.8012 42.6521 87.0247 42.6521 86.1192V56.0439H49.1523V82.9177ZM68.9635 56.0439C69.869 56.0439 70.6129 56.3674 71.195 57.0142C71.8417 57.5962 72.165 58.3403 72.165 59.2458V90C72.165 90.9055 71.8417 91.6816 71.195 92.3287C70.6129 92.9109 69.869 93.2015 68.9635 93.2015H64.5007V123.956H58.0005V56.0439H68.9635ZM87.5134 85.537H81.0138V62.5441H79.8489V86.7019H87.5134V93.2015H79.8489V117.456H81.0138V94.463H87.5134V123.956H73.3488V56.0439H87.5134V85.537ZM99.6603 56.0439C100.566 56.0439 101.31 56.3674 101.892 57.0142C102.538 57.5962 102.862 58.3403 102.862 59.2458V117.456H104.026V56.0439H110.526V123.956H99.6603C98.7548 123.956 97.9782 123.633 97.3316 122.986C96.685 122.339 96.3622 121.563 96.3622 120.657V62.5441H95.1973V123.956H88.6972V56.0439H99.6603ZM122.683 56.0439C123.588 56.0439 124.332 56.3675 124.914 57.0142C125.561 57.5962 125.884 58.3403 125.884 59.2458V85.537H119.384V62.5441H118.22V86.7019H122.683C123.588 86.7019 124.332 87.0247 124.914 87.6713C125.561 88.3179 125.884 89.0945 125.884 90V120.754C125.884 121.66 125.561 122.436 124.914 123.083C124.332 123.665 123.588 123.956 122.683 123.956H114.922C114.016 123.956 113.24 123.665 112.593 123.083C112.011 122.436 111.72 121.66 111.72 120.754V94.463H118.22V117.456H119.384V93.2015H114.922C114.016 93.2015 113.24 92.9109 112.593 92.3287C112.011 91.6816 111.72 90.9055 111.72 90V59.2458C111.72 58.3403 112.011 57.5962 112.593 57.0142C113.24 56.3674 114.016 56.0439 114.922 56.0439H122.683ZM141.233 85.537H134.732V62.5441H133.568V86.7019H141.233V93.2015H133.568V117.456H134.732V94.463H141.233V123.956H127.068V56.0439H141.233V85.537ZM153.38 56.0439C154.285 56.0439 155.029 56.3675 155.611 57.0142C156.257 57.5962 156.581 58.3403 156.581 59.2458V85.537H150.081V62.5441H148.917V86.7019H153.38C154.285 86.7019 155.029 87.0247 155.611 87.6713C156.257 88.3179 156.581 89.0945 156.581 90V120.754C156.581 121.66 156.257 122.436 155.611 123.083C155.029 123.665 154.285 123.956 153.38 123.956H145.619C144.713 123.956 143.936 123.665 143.29 123.083C142.708 122.436 142.417 121.66 142.417 120.754V94.463H148.917V117.456H150.081V93.2015H145.619C144.713 93.2015 143.936 92.9109 143.29 92.3287C142.708 91.6816 142.417 90.9055 142.417 90V59.2458C142.417 58.3403 142.708 57.5962 143.29 57.0142C143.936 56.3675 144.713 56.0439 145.619 56.0439H153.38ZM64.5007 86.7019H65.6652V62.5441H64.5007V86.7019Z" fill="#FFD500"/>
</g>
<defs>
<clipPath id="clip0_56_174">
<rect width="180" height="180" fill="white"/>
</clipPath>
</defs>
</svg>
