<svg width="180" height="180" viewBox="0 0 180 180" fill="none" xmlns="http://www.w3.org/2000/svg">
<g clip-path="url(#clip0_55_168)">
<path d="M180 0H0V180H180V0Z" fill="black"/>
<path d="M26.007 48.079C27.1249 48.079 28.0834 48.4783 28.8818 49.2768C29.6804 49.9954 30.0796 50.914 30.0796 52.0319V79.8196H22.0547V56.1039H20.6176V81.2565H30.0796V89.2813H20.6176V90.7188H30.0796V98.7436H20.6176V123.896H22.0547V100.181H30.0796V127.968C30.0796 129.086 29.6804 130.045 28.8818 130.843C28.0833 131.562 27.1249 131.921 26.007 131.921H16.5451C15.4272 131.921 14.4688 131.562 13.6703 130.843C12.9517 130.045 12.5928 129.086 12.5928 127.968V98.7436H7.80164V90.7188H12.5928V89.2813H7.80164V81.2565H12.5928V52.0319C12.5928 50.914 12.9517 49.9954 13.6703 49.2768C14.4688 48.4783 15.4272 48.079 16.5451 48.079H26.007ZM39.5706 81.2565H41.0083V48.079H49.0331V85.2089C49.0331 86.3268 48.6338 87.2855 47.8354 88.0838C47.1167 88.8821 46.1981 89.2813 45.0803 89.2813H44.3617V90.7188H45.0803C46.1981 90.7188 47.1167 91.1179 47.8354 91.9162C48.6339 92.7146 49.0331 93.6733 49.0331 94.7912V131.921H41.0083V98.7436H39.5706V131.921H31.5457V94.7912C31.5457 93.6733 31.9052 92.7146 32.6238 91.9162C33.4223 91.1179 34.3808 90.7188 35.4987 90.7188H36.3368V89.2813H35.4987C34.3808 89.2813 33.4223 88.8821 32.6238 88.0838C31.9052 87.2855 31.5457 86.3268 31.5457 85.2089V48.079H39.5706V81.2565ZM64.0289 48.079C65.1468 48.079 66.0651 48.4783 66.7839 49.2768C67.5822 49.9954 67.9813 50.914 67.9813 52.0319V90C67.9813 91.1179 67.5822 92.076 66.7839 92.875C66.0651 93.5937 65.1468 93.9525 64.0289 93.9525H58.5192V131.921H50.4943V48.079H64.0289ZM86.93 84.4901H78.9057V56.1039H77.4676V85.9282H86.93V93.9525H77.4676V123.896H78.9057V95.5099H86.93V131.921H69.4428V48.079H86.93V84.4901ZM101.926 48.079C103.044 48.079 103.962 48.4783 104.681 49.2768C105.479 49.9954 105.879 50.914 105.879 52.0319V123.896H107.316V48.079H115.341V131.921H101.926C100.808 131.921 99.8495 131.522 99.0512 130.724C98.2529 129.925 97.8544 128.967 97.8544 127.849V56.1039H96.4163V131.921H88.3914V48.079H101.926ZM130.349 48.079C131.467 48.079 132.385 48.4785 133.103 49.2768C133.902 49.9954 134.302 50.914 134.302 52.0319V84.4901H126.277V56.1039H124.839V85.9282H130.349C131.467 85.9282 132.385 86.3268 133.103 87.1251C133.902 87.9234 134.302 88.8821 134.302 90V127.968C134.302 129.086 133.902 130.045 133.103 130.843C132.385 131.562 131.467 131.921 130.349 131.921H120.767C119.65 131.921 118.691 131.562 117.892 130.843C117.174 130.045 116.814 129.086 116.814 127.968V95.5099H124.839V123.896H126.277V93.9525H120.767C119.65 93.9525 118.691 93.5937 117.892 92.875C117.174 92.076 116.814 91.1179 116.814 90V52.0319C116.814 50.914 117.174 49.9954 117.892 49.2768C118.691 48.4783 119.65 48.079 120.767 48.079H130.349ZM153.25 84.4901H145.225V56.1039H143.788V85.9282H153.25V93.9525H143.788V123.896H145.225V95.5099H153.25V131.921H135.763V48.079H153.25V84.4901ZM168.246 48.079C169.364 48.079 170.282 48.4785 171.001 49.2768C171.799 49.9954 172.198 50.914 172.198 52.0319V84.4901H164.173V56.1039H162.736V85.9282H168.246C169.364 85.9282 170.282 86.3268 171.001 87.1251C171.799 87.9234 172.198 88.8821 172.198 90V127.968C172.198 129.086 171.799 130.045 171.001 130.843C170.282 131.562 169.364 131.921 168.246 131.921H158.665C157.547 131.921 156.588 131.562 155.79 130.843C155.071 130.045 154.712 129.086 154.712 127.968V95.5099H162.736V123.896H164.173V93.9525H158.665C157.547 93.9525 156.588 93.5937 155.79 92.875C155.071 92.076 154.712 91.1179 154.712 90V52.0319C154.712 50.914 155.071 49.9954 155.79 49.2768C156.588 48.4784 157.547 48.079 158.665 48.079H168.246ZM58.5192 85.9282H59.9569V56.1039H58.5192V85.9282Z" fill="#FFD500"/>
</g>
<defs>
<clipPath id="clip0_55_168">
<rect width="180" height="180" fill="white"/>
</clipPath>
</defs>
</svg>
